<?xml version="1.0" encoding="UTF-8"?>
<svg id="Capa_1" data-name="Capa 1" xmlns="http://www.w3.org/2000/svg" xmlns:xlink="http://www.w3.org/1999/xlink" viewBox="0 0 1080 1080">
  <defs>
    <style>
      .cls-1 {
        fill: #03f;
      }

      .cls-2 {
        fill: url(#Degradado_sin_nombre_2);
      }
    </style>
    <linearGradient id="Degradado_sin_nombre_2" data-name="Degradado sin nombre 2" x1="296.43" y1="415.24" x2="701.2" y2="415.24" gradientUnits="userSpaceOnUse">
      <stop offset=".5" stop-color="#03f"/>
      <stop offset=".54" stop-color="#03f" stop-opacity=".97"/>
      <stop offset=".61" stop-color="#03f" stop-opacity=".9"/>
      <stop offset=".68" stop-color="#03f" stop-opacity=".78"/>
      <stop offset=".77" stop-color="#03f" stop-opacity=".61"/>
      <stop offset=".86" stop-color="#03f" stop-opacity=".4"/>
      <stop offset=".95" stop-color="#03f" stop-opacity=".14"/>
      <stop offset="1" stop-color="#03f" stop-opacity="0"/>
    </linearGradient>
  </defs>
  <g>
    <path class="cls-1" d="m254.24,967.62c0-9.01,6.69-15.88,15.87-15.88,7.52,0,13.25,4.72,14.91,11.37h-7.96c-1.22-2.67-3.72-4.29-6.95-4.29-5.07,0-8.35,3.67-8.35,8.79s3.28,8.79,8.35,8.79c3.24,0,5.73-1.62,6.95-4.29h7.96c-1.66,6.65-7.39,11.37-14.91,11.37-9.18,0-15.87-6.87-15.87-15.87Z"/>
    <path class="cls-1" d="m414.21,975.84v7.08h-19.85v-30.61h7.43v23.53h12.42Z"/>
    <path class="cls-1" d="m552.92,967.62c0,9.01-6.95,15.87-16.01,15.87s-16.01-6.87-16.01-15.87,6.95-15.88,16.01-15.88,16.01,6.87,16.01,15.88Zm-24.49,0c0,5.12,3.59,8.79,8.48,8.79s8.48-3.67,8.48-8.79-3.59-8.79-8.48-8.79-8.48,3.67-8.48,8.79Z"/>
    <path class="cls-1" d="m688.27,952.31l-.04,18.11c0,8.7-5.51,13.07-12.86,13.07s-12.86-4.37-12.86-13.07l-.04-18.11h7.57v17.67c0,4.81,2.14,6.43,5.33,6.43s5.34-1.62,5.34-6.43v-17.67h7.57Z"/>
    <path class="cls-1" d="m825.98,967.62c0,8.7-6.73,15.31-15.66,15.31h-11.41v-30.61h11.41c8.92,0,15.66,6.6,15.66,15.31Zm-7.43,0c0-4.9-3.37-8.22-8.22-8.22h-3.98v16.44h3.98c4.85,0,8.22-3.37,8.22-8.22Z"/>
  </g>
  <path class="cls-2" d="m660.24,96.51h-139.3c-63.08,0-98.33,22.12-126.18,78.66l-75.39,151.58c-16.38,32.78-22.94,54.9-22.94,90.95,0,31.95,8.19,58.17,22.12,86.03l75.39,152.4c26.22,53.26,61.46,77.84,122.9,77.84h184.36v-81.94h-174.53c-36.86,0-45.06-2.46-61.44-36.05l-69.65-141.75c-9.83-19.67-17.2-33.59-17.2-56.54,0-25.4,6.55-40.15,17.2-62.27l71.29-142.57c15.57-31.14,21.3-34.41,56.53-34.41h177.81v-81.94h-40.96Z"/>
  <g>
    <path class="cls-1" d="m219.72,881.4v27.67c0,3.06-1.34,4.79-4.79,4.79s-4.79-1.72-4.79-4.79v-64.92c0-3.06,1.34-4.79,4.79-4.79s4.79,1.72,4.79,4.79v27.67h28.15v-27.67c0-3.06,1.34-4.79,4.79-4.79s4.79,1.72,4.79,4.79v64.92c0,3.06-1.34,4.79-4.79,4.79s-4.79-1.72-4.79-4.79v-27.67h-28.15Z"/>
    <path class="cls-1" d="m295.63,871.44c-2.68,0-6.32-.57-6.32-4.6s3.26-4.6,6.32-4.6h12.64c4.79,0,8.23.48,11.87,4.12,3.54,3.54,4.02,6.32,4.12,10.92l.96,31.21c.1,2.68-1.25,5.36-4.31,5.36-2.39,0-4.79-2.01-4.69-4.6l-6.32,3.26c-2.59,1.34-2.68,1.34-5.65,1.34h-8.81c-4.12,0-7.08-.48-10.44-3.26-3.83-3.16-4.79-6.51-4.79-11.3v-4.02c0-4.4,1.05-7.18,4.5-10.25,3.16-2.78,6.7-3.45,10.72-3.45h19.72v-2.11c0-6.89-1.53-8.04-8.14-8.04h-11.39Zm-.1,19.34c-2.49,0-6.13.67-6.13,4.02v6.13c0,3.06,3.73,3.73,5.94,3.73h10.15l10.15-5.27v-2.01c0-5.07-1.44-6.61-6.51-6.61h-13.6Z"/>
    <path class="cls-1" d="m349.14,883.6c0-5.65,1.05-8.43,5.46-12.06l6.8-5.65c4.31-3.54,6.51-3.64,11.87-3.64h14.55c3.06,0,6.32.67,6.32,4.6s-3.64,4.6-6.32,4.6h-16.18c-1.82,0-3.64.96-5.27,2.3l-5.55,4.69c-1.44,1.15-2.49,2.11-2.49,3.93v11.39c0,1.82,1.05,2.78,2.49,3.93l5.55,4.69c1.63,1.34,3.45,2.3,5.27,2.3h16.18c2.68,0,6.32.57,6.32,4.6s-3.26,4.6-6.32,4.6h-14.55c-5.36,0-7.56-.1-11.87-3.64l-6.8-5.65c-4.4-3.64-5.46-6.41-5.46-12.06v-8.9Z"/>
    <path class="cls-1" d="m448.32,865.98c1.63-1.44,3.93-3.73,6.13-3.73,2.59,0,4.6,2.11,4.6,4.69,0,2.2-1.44,3.26-3.06,4.6l-17.81,14.74,21.64,18c1.72,1.44,3.26,2.49,3.26,4.88,0,2.58-2.01,4.69-4.6,4.69-1.82,0-2.97-1.15-4.31-2.2l-23.07-19.24-3.83,3.45v11.68c0,3.16-.67,6.32-4.6,6.32s-4.6-3.16-4.6-6.32v-57.93c0-3.16.67-6.32,4.6-6.32s4.6,3.16,4.6,6.32v34.09l21.06-17.71Z"/>
    <path class="cls-1" d="m495.41,848.94v3.45c0,3.06-1.34,4.79-4.79,4.79s-4.79-1.72-4.79-4.79v-13.02h47.3v13.02c0,3.06-1.34,4.79-4.79,4.79s-4.79-1.72-4.79-4.79v-3.45h-9.29v60.13c0,3.06-1.34,4.79-4.79,4.79s-4.79-1.72-4.79-4.79v-60.13h-9.29Z"/>
    <path class="cls-1" d="m555.91,869.05c0-3.35.38-6.8,4.6-6.8,3.64,0,4.6,3.06,4.6,6.13v3.73l7.18-5.94c2.59-2.11,5.27-3.93,8.14-3.93h7.37c3.54,0,6.51,1.15,9,3.64,3.06,3.06,4.12,6.22,4.12,10.44,0,3.16-.58,6.41-4.5,6.41-3.35,0-4.69-2.68-4.69-5.65,0-1.53,0-2.68-.96-4.02-1.15-1.63-3.35-1.63-5.55-1.63h-2.68c-1.72,0-2.97.86-4.6,2.2l-12.83,10.63v23.27c0,3.16-.67,6.32-4.6,6.32s-4.6-3.16-4.6-6.32v-38.49Z"/>
    <path class="cls-1" d="m652.12,904.66h6.89c3.06,0,6.32.67,6.32,4.6s-3.64,4.6-6.32,4.6h-23.36c-2.68,0-6.32-.57-6.32-4.6s3.26-4.6,6.32-4.6h7.28v-33.22h-7.28c-2.68,0-6.32-.57-6.32-4.6s3.26-4.6,6.32-4.6h9.67c5.26,0,6.8.96,6.8,6.41v36Zm-13.88-60.99c0-3.25,1.82-4.31,4.31-4.31h5.27c2.49,0,4.31,1.05,4.31,4.31v4.4c0,3.26-1.82,4.31-4.31,4.31h-5.27c-2.49,0-4.31-1.05-4.31-4.31v-4.4Z"/>
    <path class="cls-1" d="m693.75,883.6c0-5.65,1.05-8.43,5.46-12.06l6.8-5.65c4.31-3.54,6.51-3.64,11.87-3.64h14.55c3.06,0,6.32.67,6.32,4.6s-3.64,4.6-6.32,4.6h-16.18c-1.82,0-3.64.96-5.27,2.3l-5.55,4.69c-1.44,1.15-2.49,2.11-2.49,3.93v11.39c0,1.82,1.05,2.78,2.49,3.93l5.55,4.69c1.63,1.34,3.45,2.3,5.27,2.3h16.18c2.68,0,6.32.57,6.32,4.6s-3.26,4.6-6.32,4.6h-14.55c-5.36,0-7.56-.1-11.87-3.64l-6.8-5.65c-4.4-3.64-5.46-6.41-5.46-12.06v-8.9Z"/>
    <path class="cls-1" d="m792.93,865.98c1.63-1.44,3.93-3.73,6.13-3.73,2.59,0,4.6,2.11,4.6,4.69,0,2.2-1.44,3.26-3.06,4.6l-17.81,14.74,21.64,18c1.72,1.44,3.26,2.49,3.26,4.88,0,2.58-2.01,4.69-4.6,4.69-1.82,0-2.97-1.15-4.31-2.2l-23.07-19.24-3.83,3.45v11.68c0,3.16-.67,6.32-4.6,6.32s-4.6-3.16-4.6-6.32v-57.93c0-3.16.67-6.32,4.6-6.32s4.6,3.16,4.6,6.32v34.09l21.06-17.71Z"/>
    <path class="cls-1" d="m847.3,871.44c-1.92,0-5.17-.38-5.17,2.58,0,1.53,1.15,2.11,2.49,2.68l22.98,10.43c5.94,2.68,9,6.41,9,13.02,0,9.29-6.32,13.69-15.13,13.69h-14.17c-4.79,0-8.04-.19-11.49-2.87-1.72-1.34-4.21-3.06-4.21-5.36,0-2.58,2.2-4.59,4.79-4.59,1.44,0,2.49.48,3.54,1.63,1.63,1.82,4.5,2.01,7.37,2.01h12.45c3.25,0,7.66.29,7.66-5.07,0-2.2-2.68-3.64-4.79-4.59l-21.64-9.86c-5.07-2.3-8.04-5.27-8.04-11.2,0-7.28,5.74-11.68,12.64-11.68h15.7c5.07,0,7.18.29,10.63,3.16,1.72,1.44,3.64,2.58,3.64,5.17s-2.2,4.59-4.69,4.59c-1.72,0-2.78-.67-3.93-1.91-1.53-1.63-3.16-1.82-5.65-1.82h-13.98Z"/>
  </g>
</svg>