<?xml version="1.0" encoding="UTF-8"?>
<svg id="Capa_1" data-name="Capa 1" xmlns="http://www.w3.org/2000/svg" xmlns:xlink="http://www.w3.org/1999/xlink" viewBox="0 0 1080 1080">
  <defs>
    <style>
      .cls-1 {
        fill: url(#Degradado_sin_nombre_2);
      }
    </style>
    <linearGradient id="Degradado_sin_nombre_2" data-name="Degradado sin nombre 2" x1="258.58" y1="540" x2="821.42" y2="540" gradientUnits="userSpaceOnUse">
      <stop offset=".5" stop-color="#03f"/>
      <stop offset=".54" stop-color="#03f" stop-opacity=".97"/>
      <stop offset=".61" stop-color="#03f" stop-opacity=".9"/>
      <stop offset=".68" stop-color="#03f" stop-opacity=".78"/>
      <stop offset=".77" stop-color="#03f" stop-opacity=".61"/>
      <stop offset=".86" stop-color="#03f" stop-opacity=".4"/>
      <stop offset=".95" stop-color="#03f" stop-opacity=".14"/>
      <stop offset="1" stop-color="#03f" stop-opacity="0"/>
    </linearGradient>
  </defs>
  <path class="cls-1" d="m764.46,96.79h-193.71c-87.71,0-136.72,30.76-175.45,109.38l-104.83,210.77c-22.78,45.58-31.9,76.34-31.9,126.47,0,44.43,11.39,80.89,30.76,119.63l104.83,211.92c36.45,74.06,85.46,108.24,170.9,108.24h256.36v-113.93h-242.69c-51.26,0-62.65-3.42-85.44-50.13l-96.85-197.11c-13.67-27.35-23.92-46.71-23.92-78.61,0-35.32,9.11-55.83,23.92-86.59l99.13-198.25c21.64-43.29,29.62-47.85,78.6-47.85h247.25v-113.93h-56.96Z"/>
</svg>